<svg width="130" height="139" fill="none" xmlns="http://www.w3.org/2000/svg"><path d="M0 0h130v139H0z"/><g filter="url('#filter0_i_0_1')"><path d="m65.5 139 63.653-110.25H1.847L65.5 139Z" fill="#8B008B"/></g><circle cx="65" cy="65" r="55" stroke="#000" stroke-width="20"/><g filter="url('#filter1_d_0_1')"><path d="m65 18 10.552 32.476H109.7L82.074 70.548l10.552 32.476L65 82.952l-27.626 20.072 10.552-32.476L20.3 50.476h34.148L65 18Z" fill="#024959"/></g><g filter="url('#filter2_d_0_1')"><path d="M60.396 57.455h1.761v10.397c0 .928-.17 1.717-.511 2.365a3.475 3.475 0 0 1-1.442 1.478c-.62.336-1.352.504-2.194.504-.796 0-1.504-.144-2.124-.433a3.5 3.5 0 0 1-1.463-1.25c-.355-.54-.533-1.182-.533-1.925h1.733c0 .412.102.772.306 1.08a2.1 2.1 0 0 0 .852.71c.36.17.77.255 1.229.255.506 0 .937-.106 1.292-.32.355-.212.625-.525.81-.937.19-.416.284-.925.284-1.527V57.454ZM65.687 72V57.455h5.085c1.014 0 1.85.175 2.507.525.659.346 1.149.812 1.47 1.4a3.94 3.94 0 0 1 .484 1.938c0 .625-.112 1.141-.334 1.549-.218.407-.507.729-.867.965a3.946 3.946 0 0 1-1.157.526v.142c.445.028.892.185 1.342.469.45.284.826.691 1.13 1.221.302.53.454 1.18.454 1.946 0 .73-.166 1.385-.497 1.968-.332.582-.855 1.044-1.57 1.385-.715.34-1.645.511-2.791.511h-5.256Zm1.761-1.563h3.495c1.15 0 1.967-.222 2.45-.667.488-.45.732-.994.732-1.634 0-.492-.126-.947-.377-1.363a2.724 2.724 0 0 0-1.072-1.009c-.464-.255-1.014-.383-1.648-.383h-3.58v5.056Zm0-6.59h3.268c.53 0 1.008-.105 1.434-.313.431-.208.772-.502 1.023-.88.256-.38.383-.825.383-1.336 0-.639-.222-1.181-.667-1.626-.445-.45-1.15-.675-2.117-.675h-3.324v4.83Z" fill="#fff"/></g><defs><filter id="filter0_i_0_1" x="1.847" y="28.75" width="127.306" height="114.25" filterUnits="userSpaceOnUse" color-interpolation-filters="sRGB"><feFlood flood-opacity="0" result="BackgroundImageFix"/><feBlend in="SourceGraphic" in2="BackgroundImageFix" result="shape"/><feColorMatrix in="SourceAlpha" values="0 0 0 0 0 0 0 0 0 0 0 0 0 0 0 0 0 0 127 0" result="hardAlpha"/><feOffset dy="4"/><feGaussianBlur stdDeviation="2.5"/><feComposite in2="hardAlpha" operator="arithmetic" k2="-1" k3="1"/><feColorMatrix values="0 0 0 0 0 0 0 0 0 0 0 0 0 0 0 0 0 0 0.75 0"/><feBlend in2="shape" result="effect1_innerShadow_0_1"/></filter><filter id="filter1_d_0_1" x="20.3" y="18" width="97.399" height="93.024" filterUnits="userSpaceOnUse" color-interpolation-filters="sRGB"><feFlood flood-opacity="0" result="BackgroundImageFix"/><feColorMatrix in="SourceAlpha" values="0 0 0 0 0 0 0 0 0 0 0 0 0 0 0 0 0 0 127 0" result="hardAlpha"/><feOffset dx="4" dy="4"/><feGaussianBlur stdDeviation="2"/><feComposite in2="hardAlpha" operator="out"/><feColorMatrix values="0 0 0 0 0 0 0 0 0 0 0 0 0 0 0 0 0 0 0.33 0"/><feBlend in2="BackgroundImageFix" result="effect1_dropShadow_0_1"/><feBlend in="SourceGraphic" in2="effect1_dropShadow_0_1" result="shape"/></filter><filter id="filter2_d_0_1" x="51.89" y="57.455" width="29.91" height="22.744" filterUnits="userSpaceOnUse" color-interpolation-filters="sRGB"><feFlood flood-opacity="0" result="BackgroundImageFix"/><feColorMatrix in="SourceAlpha" values="0 0 0 0 0 0 0 0 0 0 0 0 0 0 0 0 0 0 127 0" result="hardAlpha"/><feOffset dx="2" dy="4"/><feGaussianBlur stdDeviation="2"/><feComposite in2="hardAlpha" operator="out"/><feColorMatrix values="0 0 0 0 0 0 0 0 0 0 0 0 0 0 0 0 0 0 1 0"/><feBlend in2="BackgroundImageFix" result="effect1_dropShadow_0_1"/><feBlend in="SourceGraphic" in2="effect1_dropShadow_0_1" result="shape"/></filter></defs></svg>